<svg width="35" height="32" viewBox="0 0 35 32" fill="none" xmlns="http://www.w3.org/2000/svg">
<path fill-rule="evenodd" clip-rule="evenodd" d="M11.6667 6.66667C11.6667 4.45753 13.6254 2.66667 16.0417 2.66667H18.9583C21.3746 2.66667 23.3333 4.45753 23.3333 6.66667V8.22761C23.7895 8.0802 24.2803 8 24.7917 8H27.7083C30.1246 8 32.0833 9.79086 32.0833 12V25.3333C32.0833 27.5425 30.1246 29.3333 27.7083 29.3333H7.29166C4.87541 29.3333 2.91666 27.5425 2.91666 25.3333V17.3333C2.91666 15.1242 4.87541 13.3333 7.29166 13.3333H10.2083C10.7197 13.3333 11.2105 13.4135 11.6667 13.5609V6.66667ZM14.5833 26.6667H20.4167V6.66667C20.4167 5.93029 19.7637 5.33333 18.9583 5.33333H16.0417C15.2362 5.33333 14.5833 5.93029 14.5833 6.66667V26.6667ZM23.3333 26.6667H27.7083C28.5137 26.6667 29.1667 26.0697 29.1667 25.3333V12C29.1667 11.2636 28.5137 10.6667 27.7083 10.6667H24.7917C23.9862 10.6667 23.3333 11.2636 23.3333 12V26.6667ZM11.6667 26.6667V17.3333C11.6667 16.597 11.0137 16 10.2083 16H7.29166C6.48624 16 5.83332 16.597 5.83332 17.3333V25.3333C5.83332 26.0697 6.48624 26.6667 7.29166 26.6667H11.6667Z" fill="white"/>
</svg>
