<svg width="35" height="31" viewBox="0 0 35 31" fill="none" xmlns="http://www.w3.org/2000/svg">
<path fill-rule="evenodd" clip-rule="evenodd" d="M10.9375 1.29166C11.7429 1.29166 12.3958 1.86996 12.3958 2.58333V3.875H22.6042V2.58333C22.6042 1.86996 23.2571 1.29166 24.0625 1.29166C24.8679 1.29166 25.5208 1.86996 25.5208 2.58333V3.90689C29.2055 4.23092 32.0833 6.98446 32.0833 10.3333V21.9583C32.0833 25.5252 28.8187 28.4167 24.7917 28.4167H10.2083C6.18125 28.4167 2.91666 25.5252 2.91666 21.9583V10.3333C2.91666 6.98446 5.79444 4.23092 9.47916 3.90689V2.58333C9.47916 1.86996 10.1321 1.29166 10.9375 1.29166ZM6.08227 9.04166H28.9177C28.3171 7.53662 26.6966 6.45833 24.7917 6.45833H10.2083C8.30342 6.45833 6.68286 7.53662 6.08227 9.04166ZM29.1667 11.625H5.83332V21.9583C5.83332 24.0984 7.79208 25.8333 10.2083 25.8333H24.7917C27.2079 25.8333 29.1667 24.0984 29.1667 21.9583V11.625Z" fill="white"/>
</svg>
