<svg width="35" height="31" viewBox="0 0 35 31" fill="none" xmlns="http://www.w3.org/2000/svg">
<path fill-rule="evenodd" clip-rule="evenodd" d="M13.125 5.16667C10.7088 5.16667 8.75001 6.90156 8.75001 9.04167V21.9583C8.75001 24.0984 10.7088 25.8333 13.125 25.8333H21.875C24.2913 25.8333 26.25 24.0984 26.25 21.9583V12.9167H21.875C19.4588 12.9167 17.5 11.1818 17.5 9.04167V5.16667H13.125ZM20.4167 6.99336L24.1876 10.3333H21.875C21.0696 10.3333 20.4167 9.75503 20.4167 9.04167V6.99336ZM5.83334 9.04167C5.83334 5.47483 9.09793 2.58333 13.125 2.58333H18.9583C19.3451 2.58333 19.7161 2.71942 19.9895 2.96165L28.7395 10.7117C29.013 10.9539 29.1667 11.2824 29.1667 11.625V21.9583C29.1667 25.5252 25.9021 28.4167 21.875 28.4167H13.125C9.09793 28.4167 5.83334 25.5252 5.83334 21.9583V9.04167ZM11.6667 18.0833C11.6667 17.37 12.3196 16.7917 13.125 16.7917H21.875C22.6804 16.7917 23.3333 17.37 23.3333 18.0833C23.3333 18.7967 22.6804 19.375 21.875 19.375H13.125C12.3196 19.375 11.6667 18.7967 11.6667 18.0833ZM11.6667 21.9583C11.6667 21.245 12.3196 20.6667 13.125 20.6667H21.875C22.6804 20.6667 23.3333 21.245 23.3333 21.9583C23.3333 22.6717 22.6804 23.25 21.875 23.25H13.125C12.3196 23.25 11.6667 22.6717 11.6667 21.9583Z" fill="white"/>
</svg>
