<svg width="34" height="22" viewBox="0 0 34 22" fill="none" xmlns="http://www.w3.org/2000/svg">
<path d="M30.8509 0H2.97279C1.33095 0 0 1.24239 0 2.77497V18.8082C0 20.3408 1.33095 21.5831 2.97279 21.5831H30.8509C32.4928 21.5831 33.8237 20.3408 33.8237 18.8082V2.77497C33.8237 1.24239 32.4928 0 30.8509 0ZM28.4722 15.8723C28.0556 16.2031 27.43 16.1563 27.0753 15.767L21.356 9.4898L17.4029 11.595C17.0985 11.7571 16.7251 11.757 16.4209 11.595L12.4678 9.4898L6.74836 15.7669C6.394 16.1559 5.76846 16.2033 5.35154 15.8722C4.93463 15.5413 4.88416 14.9575 5.23871 14.5684L10.7161 8.55691L5.85097 5.96595C5.37559 5.71287 5.21011 5.14789 5.48122 4.7042C5.75247 4.26039 6.3576 4.10598 6.83298 4.35905C7.23616 4.57371 16.4572 9.48437 16.9119 9.72653C17.366 9.48468 26.5865 4.57433 26.9907 4.35905C27.4659 4.10591 28.0712 4.26039 28.3425 4.7042C28.6136 5.14789 28.4482 5.71281 27.9727 5.96595L23.1076 8.55691L28.585 14.5684C28.9396 14.9576 28.8891 15.5413 28.4722 15.8723Z" fill="white"/>
</svg>
